# xmcd CD database file
#
# Track frame offsets:
#	150
#	4894
#	10096
#	17740
#	25638
#	31746
#	38191
#	50375
#	62526
#	68254
#	74211
#	84149
#	94510
#	100498
#	106731
#	113483
#	120541
#	124577
#	128881
#	133171
#	137473
#	143300
#	149318
#	155336
#	161359
#	167088
#	173092
#	176865
#	181068
#	188418
#	196123
#	204839
#	213898
#	218029
#	222311
#	225809
#	232422
#	239257
#	242536
#	246077
#	250540
#	255198
#	261237
#	267295
#	270072
#	272822
#	276512
#	278879
#	281239
#	284169
#
# Disc length: 3832 seconds
#
# Revision: 1
# Processed by: cddbd v1.5.2PL0 Copyright (c) Steve Scherf et al.
# Submitted via: CDex 1.51
#
DISCID=af0ef632
DTITLE=Harri Louhensuo - Blues Station
DYEAR=2002
DGENRE=Blues
TTITLE0=One Note (Page 9)
TTITLE1=One Note, Backing (Page 9)
TTITLE2=Kickoff (Page 10)
TTITLE3=Kickoff, Backing (Page 10)
TTITLE4=Blues Station (Page 13)
TTITLE5=Blues Station, Backing (Page 13)
TTITLE6=Slowhand (Page 16)
TTITLE7=Slowhand, Backing (Page 16)
TTITLE8=Sixpack (Page 19)
TTITLE9=Sixpack, Backing (Page 19)
TTITLE10=Karakul (Page 22)
TTITLE11=Karakul, Backing (Page 22)
TTITLE12=Sudden Sense (Page 26)
TTITLE13=Sudden Sense, Backing (Page 26)
TTITLE14=Hearthstone (Page 28)
TTITLE15=Hearthstone, Backing (Page 28)
TTITLE16=Duplex (Page 31)
TTITLE17=Duplex, Backing for Guitar 1 (Page 31)
TTITLE18=Duplex, Backing for Guitar 2 (Page 31)
TTITLE19=Duplex, Backing (Page 31)
TTITLE20=Acme (Page 33)
TTITLE21=Acme, Backing for Guitar 1 (Page 33)
TTITLE22=Acme, Backing for Guitar 2 (Page 33)
TTITLE23=Acme, Backing (Page 33)
TTITLE24=Caracal (Page 40)
TTITLE25=Caracal, Backing (Page 40)
TTITLE26=Undulating (Page 42)
TTITLE27=Undulating, Backing (Page 42)
TTITLE28=Dog Violet (Page 45)
TTITLE29=Dog Violet, Backing (Page 45)
TTITLE30=Blues In Minor (Page 48)
TTITLE31=Blues In Minor, Backing (Page 48)
TTITLE32=Sliding Scale (Page 52)
TTITLE33=Sliding Scale, Backing (Page 52)
TTITLE34=Anvil Stock (Page 54)
TTITLE35=False Start (Page 56)
TTITLE36=False Start, Backing (Page 56)
TTITLE37=Ragout (Page 59)
TTITLE38=Ragout, Backing (Page 59)
TTITLE39=Accolade (Page 61)
TTITLE40=Accolade, Backing (Page 61)
TTITLE41=Acorn (Page 63)
TTITLE42=Acorn, Backing (Page 63)
TTITLE43=Funky Blues (Page 66)
TTITLE44=Funky Blues, Backing (Page 66)
TTITLE45=Muted Strings (Page 68)
TTITLE46=Shuffle (Page 69)
TTITLE47=Shuffle, Backing (Page 69)
TTITLE48=Rock-Funk (Page 70)
TTITLE49=Rock-Funk, Backing (Page 70)
EXTD=YEAR: 2002
EXTT0=
EXTT1=
EXTT2=
EXTT3=
EXTT4=
EXTT5=
EXTT6=
EXTT7=
EXTT8=
EXTT9=
EXTT10=
EXTT11=
EXTT12=
EXTT13=
EXTT14=
EXTT15=
EXTT16=
EXTT17=
EXTT18=
EXTT19=
EXTT20=
EXTT21=
EXTT22=
EXTT23=
EXTT24=
EXTT25=
EXTT26=
EXTT27=
EXTT28=
EXTT29=
EXTT30=
EXTT31=
EXTT32=
EXTT33=
EXTT34=
EXTT35=
EXTT36=
EXTT37=
EXTT38=
EXTT39=
EXTT40=
EXTT41=
EXTT42=
EXTT43=
EXTT44=
EXTT45=
EXTT46=
EXTT47=
EXTT48=
EXTT49=
PLAYORDER=
